<svg xmlns="http://www.w3.org/2000/svg" viewBox="0 0 69.46 75.29"><defs><style>.cls-1{fill:#333;}</style></defs><title>Club</title><g id="Layer_2" data-name="Layer 2"><g id="_12" data-name="12"><path id="icon" class="cls-1" d="M69.46,43.62A16.94,16.94,0,0,1,37.74,51.9a1.55,1.55,0,0,1,0-.21.19.19,0,0,1-.09,0c0,.06.06.11.1.18.29,7,1.88,17.09,8.07,23.39H23.65c6.2-6.31,7.8-16.49,8.09-23.44A3.88,3.88,0,0,0,32,51.4l-.22-.06a4.52,4.52,0,0,1,0,.51A16.92,16.92,0,1,1,21.31,27.26a16.78,16.78,0,0,1-3.52-10.32,16.94,16.94,0,0,1,33.88,0,16.78,16.78,0,0,1-3.52,10.32A17,17,0,0,1,69.46,43.62Z"/></g></g></svg>