<svg xmlns="http://www.w3.org/2000/svg" viewBox="0 0 72.07 65.17"><defs><style>.cls-1{fill:#cc2929;}</style></defs><title>Heart_1</title><g id="Layer_2" data-name="Layer 2"><g id="_9" data-name="9"><path id="icon" class="cls-1" d="M52.13,0A19.82,19.82,0,0,0,36.66,7.36L36,8.12l-.62-.76A20.28,20.28,0,0,0,30,2.71,20,20,0,0,0,19.93,0C9.13,0,.38,8.72,0,19.85c-.18,5.58,1.61,11.24,5.32,16.83C8.25,41.08,36,65.17,36,65.17S63.81,41.08,66.74,36.68c3.71-5.59,5.5-11.25,5.31-16.83C71.68,8.72,62.93,0,52.13,0Z"/></g></g></svg>