<svg xmlns="http://www.w3.org/2000/svg" viewBox="0 0 40.18 53.76"><defs><style>.cls-1{fill:#fff;}</style></defs><title>King</title><g id="Layer_2" data-name="Layer 2"><g id="_5" data-name="5"><path id="icon" class="cls-1" d="M8.24,26.34v2h6.51v-2Zm0,0v2h6.51v-2Zm0,0v2h6.51v-2Zm0,0v2h6.51v-2Zm0,0v2h6.51v-2Zm0,0v2h6.51v-2Zm0,0v2h6.51v-2Zm0,0v2h6.51v-2Zm0,0v2h6.51v-2Zm0,0v2h6.51v-2Zm0,0v2h6.51v-2Zm0,2h6.51v-2H8.24Zm0,0h6.51v-2H8.24Zm0-2v2h6.51v-2Zm0,0v2h6.51v-2Zm0,0v2h6.51v-2Zm0,0v2h6.51v-2Zm0,0v2h6.51v-2Zm0,0v2h6.51v-2Zm0,0v2h6.51v-2Zm0,0v2h6.51v-2Zm0,0v2h6.51v-2Zm0,0v2h6.51v-2ZM39.1,38a3.66,3.66,0,0,0-2.6-1.07,3.74,3.74,0,0,0-1.68.39V20.23h1V14.55h-1c.27-1.7,1.54-9.38,2.85-11.2,1.49-2.06-6.64-1.87-6.64-1.87S35,10.13,28.66,8.83,29.3.9,28.66.38s-17.1-.51-17.73,0,6.33,7.16,0,8.45S8.55,1.48,8.55,1.48.42,1.29,1.9,3.35c1.31,1.82,2.58,9.5,2.85,11.2h-1v5.68h1L0,37.93H5.75L4.63,53.76l15.16-1.92,3.9-5-1.57-1.23L18.73,50,6.79,51.47l.71-9.88h6v-2H7.64l.26-3.66H2.61l4.23-15.7h13V40.59A3.68,3.68,0,0,0,27,41.71a3.67,3.67,0,0,0,6.5,1A3.68,3.68,0,1,0,39.1,38ZM23.5,42.27a1.68,1.68,0,1,1,1.68-1.68A1.68,1.68,0,0,1,23.5,42.27Zm3.5-2.8A3.71,3.71,0,0,0,26.1,38a3.66,3.66,0,0,0-2.6-1.07,3.74,3.74,0,0,0-1.68.39V20.23h1.54V33.28h2v-13h1V33.28h2v-13h1V33.28h2v-13h1.46v17.5A3.68,3.68,0,0,0,27,39.47Zm3.5,2.8a1.68,1.68,0,1,1,1.68-1.68A1.68,1.68,0,0,1,30.5,42.27Zm3.3-24h-28V16.55h28Zm2.7,24a1.68,1.68,0,1,1,1.68-1.68A1.68,1.68,0,0,1,36.5,42.27Z"/></g></g></svg>