<svg xmlns="http://www.w3.org/2000/svg" viewBox="0 0 46.2 53.18"><defs><style>.cls-1{fill:#fff;}</style></defs><title>Queen</title><g id="Layer_2" data-name="Layer 2"><g id="_6" data-name="6"><path class="cls-1" d="M12.57,27.56c-2,0-3.65.53-3.65,1.19s1.63,1.19,3.65,1.19,3.64-.53,3.64-1.19S14.58,27.56,12.57,27.56ZM8.92,24.83v1h7.29v-1ZM5.78,14.28v3H35.93v-3ZM35.94,0a1.85,1.85,0,0,0-.22,3.69c-.48,2.07-1.9,3.57-3.59,3.57S29,5.77,28.54,3.7a1.82,1.82,0,1,0-.34,0c-.47,2.07-1.9,3.57-3.59,3.57S21.51,5.76,21,3.7a1.84,1.84,0,1,0-.34,0c-.48,2.06-1.91,3.56-3.59,3.56S14,5.76,13.51,3.69a1.85,1.85,0,1,0-.34,0c-.48,2.06-1.91,3.56-3.59,3.56S6.47,5.76,6,3.69a1.8,1.8,0,1,0-.21,0v9.07H35.94V3.71a1.86,1.86,0,0,0,0-3.71ZM5.78,12.78H35.94V3.71a1.93,1.93,0,1,0-.22,0c-.48,2.07-1.9,3.57-3.59,3.57S29,5.77,28.54,3.7a1.82,1.82,0,1,0-.34,0c-.47,2.07-1.9,3.57-3.59,3.57S21.51,5.76,21,3.7a1.84,1.84,0,1,0-.34,0c-.48,2.06-1.91,3.56-3.59,3.56S14,5.76,13.51,3.69a1.85,1.85,0,1,0-.34,0c-.48,2.06-1.91,3.56-3.59,3.56S6.47,5.76,6,3.69a1.8,1.8,0,1,0-.21,0Zm30.15,1.5H5.78v3H35.93Zm-27,11.55h7.29v-1H8.92Zm3.65,1.73c-2,0-3.65.53-3.65,1.19s1.63,1.19,3.65,1.19,3.64-.53,3.64-1.19S14.58,27.56,12.57,27.56ZM5.78,12.78H35.94V3.71a1.93,1.93,0,1,0-.22,0c-.48,2.07-1.9,3.57-3.59,3.57S29,5.77,28.54,3.7a1.82,1.82,0,1,0-.34,0c-.47,2.07-1.9,3.57-3.59,3.57S21.51,5.76,21,3.7a1.84,1.84,0,1,0-.34,0c-.48,2.06-1.91,3.56-3.59,3.56S14,5.76,13.51,3.69a1.85,1.85,0,1,0-.34,0c-.48,2.06-1.91,3.56-3.59,3.56S6.47,5.76,6,3.69a1.8,1.8,0,1,0-.21,0Zm30.15,1.5H5.78v3H35.93Zm-27,11.55h7.29v-1H8.92Zm3.65,1.73c-2,0-3.65.53-3.65,1.19s1.63,1.19,3.65,1.19,3.64-.53,3.64-1.19S14.58,27.56,12.57,27.56Zm0,0c-2,0-3.65.53-3.65,1.19s1.63,1.19,3.65,1.19,3.64-.53,3.64-1.19S14.58,27.56,12.57,27.56ZM8.92,24.83v1h7.29v-1ZM5.78,14.28v3H35.93v-3ZM35.94,0a1.85,1.85,0,0,0-.22,3.69c-.48,2.07-1.9,3.57-3.59,3.57S29,5.77,28.54,3.7a1.82,1.82,0,1,0-.34,0c-.47,2.07-1.9,3.57-3.59,3.57S21.51,5.76,21,3.7a1.84,1.84,0,1,0-.34,0c-.48,2.06-1.91,3.56-3.59,3.56S14,5.76,13.51,3.69a1.85,1.85,0,1,0-.34,0c-.48,2.06-1.91,3.56-3.59,3.56S6.47,5.76,6,3.69a1.8,1.8,0,1,0-.21,0v9.07H35.94V3.71a1.86,1.86,0,0,0,0-3.71Zm0,0a1.85,1.85,0,0,0-.22,3.69c-.48,2.07-1.9,3.57-3.59,3.57S29,5.77,28.54,3.7a1.82,1.82,0,1,0-.34,0c-.47,2.07-1.9,3.57-3.59,3.57S21.51,5.76,21,3.7a1.84,1.84,0,1,0-.34,0c-.48,2.06-1.91,3.56-3.59,3.56S14,5.76,13.51,3.69a1.85,1.85,0,1,0-.34,0c-.48,2.06-1.91,3.56-3.59,3.56S6.47,5.76,6,3.69a1.8,1.8,0,1,0-.21,0v9.07H35.94V3.71a1.86,1.86,0,0,0,0-3.71ZM5.78,14.28v3H35.93v-3ZM8.92,24.83v1h7.29v-1Zm3.65,2.73c-2,0-3.65.53-3.65,1.19s1.63,1.19,3.65,1.19,3.64-.53,3.64-1.19S14.58,27.56,12.57,27.56ZM46.2,49.27,25,41.94,24.1,20.51H8.36L2.67,38.58l4,.25L7,42.4l5.38-.56.31,3-5.4.57.51,5.24L22,46.82l.52,1.93L6.06,53.18,4.86,40.72,0,40.42,6.89,18.51H35v.6Z"/></g></g></svg>