<svg xmlns="http://www.w3.org/2000/svg" viewBox="0 0 66.42 80.71"><defs><style>.cls-1{fill:#333;}</style></defs><title>Spade</title><g id="Layer_2" data-name="Layer 2"><g id="_10" data-name="10"><path id="icon" class="cls-1" d="M66.41,45.69a18.38,18.38,0,0,1-27.63,15.8,17.67,17.67,0,0,1-2.6-1.84c.43,6.59,2.13,15.43,7.67,21.06H22.57c5.54-5.65,7.26-14.49,7.69-21.08a18,18,0,0,1-2.62,1.86A18.54,18.54,0,0,1,18.37,64,18.57,18.57,0,0,1,0,45.69C-.16,40.55,1.48,35.33,4.9,30.17,7.6,26.12,33.21,0,33.21,0S58.82,26.12,61.52,30.17C64.94,35.33,66.58,40.55,66.41,45.69Z"/></g></g></svg>